<svg width="173" height="28" viewBox="0 0 173 28" fill="none" xmlns="http://www.w3.org/2000/svg">
<path d="M45.9199 10.272V13.232H51.1039V15.312H45.9199V19.392H43.3279V8.192H51.7919V10.272H45.9199Z" fill="white"/>
<path d="M53.5466 8.192H56.1386V19.392H53.5466V8.192Z" fill="white"/>
<path d="M64.1566 19.584C63.0153 19.584 61.9806 19.3387 61.0526 18.848C60.1353 18.3467 59.41 17.6587 58.8766 16.784C58.354 15.8987 58.0926 14.9013 58.0926 13.792C58.0926 12.6827 58.354 11.6907 58.8766 10.816C59.41 9.93067 60.1353 9.24267 61.0526 8.752C61.9806 8.25067 63.0206 8 64.1726 8C65.1433 8 66.018 8.17067 66.7966 8.512C67.586 8.85333 68.2473 9.344 68.7806 9.984L67.1166 11.52C66.3593 10.6453 65.4206 10.208 64.3006 10.208C63.6073 10.208 62.9886 10.3627 62.4446 10.672C61.9006 10.9707 61.474 11.392 61.1646 11.936C60.866 12.48 60.7166 13.0987 60.7166 13.792C60.7166 14.4853 60.866 15.104 61.1646 15.648C61.474 16.192 61.9006 16.6187 62.4446 16.928C62.9886 17.2267 63.6073 17.376 64.3006 17.376C65.4206 17.376 66.3593 16.9333 67.1166 16.048L68.7806 17.584C68.2473 18.2347 67.586 18.7307 66.7966 19.072C66.0073 19.4133 65.1273 19.584 64.1566 19.584Z" fill="white"/>
<path d="M75.7206 19.584C74.558 19.584 73.5073 19.3333 72.5686 18.832C71.6406 18.3307 70.91 17.6427 70.3766 16.768C69.854 15.8827 69.5926 14.8907 69.5926 13.792C69.5926 12.6933 69.854 11.7067 70.3766 10.832C70.91 9.94667 71.6406 9.25333 72.5686 8.752C73.5073 8.25067 74.558 8 75.7206 8C76.8833 8 77.9286 8.25067 78.8566 8.752C79.7846 9.25333 80.5153 9.94667 81.0486 10.832C81.582 11.7067 81.8486 12.6933 81.8486 13.792C81.8486 14.8907 81.582 15.8827 81.0486 16.768C80.5153 17.6427 79.7846 18.3307 78.8566 18.832C77.9286 19.3333 76.8833 19.584 75.7206 19.584ZM75.7206 17.376C76.382 17.376 76.9793 17.2267 77.5126 16.928C78.046 16.6187 78.462 16.192 78.7606 15.648C79.07 15.104 79.2246 14.4853 79.2246 13.792C79.2246 13.0987 79.07 12.48 78.7606 11.936C78.462 11.392 78.046 10.9707 77.5126 10.672C76.9793 10.3627 76.382 10.208 75.7206 10.208C75.0593 10.208 74.462 10.3627 73.9286 10.672C73.3953 10.9707 72.974 11.392 72.6646 11.936C72.366 12.48 72.2166 13.0987 72.2166 13.792C72.2166 14.4853 72.366 15.104 72.6646 15.648C72.974 16.192 73.3953 16.6187 73.9286 16.928C74.462 17.2267 75.0593 17.376 75.7206 17.376Z" fill="white"/>
<path d="M83.7966 8.192H86.3886V19.392H83.7966V8.192Z" fill="white"/>
<path d="M99.3186 8.192V19.392H97.1906L91.6066 12.592V19.392H89.0466V8.192H91.1906L96.7586 14.992V8.192H99.3186Z" fill="white"/>
<path d="M112.161 19.392L112.145 12.672L108.849 18.208H107.681L104.401 12.816V19.392H101.969V8.192H104.113L108.305 15.152L112.433 8.192H114.561L114.593 19.392H112.161Z" fill="white"/>
<path d="M124.626 16.992H119.426L118.434 19.392H115.778L120.77 8.192H123.33L128.338 19.392H125.618L124.626 16.992ZM123.81 15.024L122.034 10.736L120.258 15.024H123.81Z" fill="white"/>
<path d="M136.636 19.392L134.476 16.272H132.092V19.392H129.5V8.192H134.348C135.34 8.192 136.198 8.35733 136.924 8.688C137.66 9.01867 138.225 9.488 138.62 10.096C139.014 10.704 139.212 11.424 139.212 12.256C139.212 13.088 139.009 13.808 138.604 14.416C138.209 15.0133 137.644 15.472 136.908 15.792L139.42 19.392H136.636ZM136.588 12.256C136.588 11.6267 136.385 11.1467 135.98 10.816C135.574 10.4747 134.982 10.304 134.204 10.304H132.092V14.208H134.204C134.982 14.208 135.574 14.0373 135.98 13.696C136.385 13.3547 136.588 12.8747 136.588 12.256Z" fill="white"/>
<path d="M145.345 14.992L143.841 16.56V19.392H141.265V8.192H143.841V13.424L148.801 8.192H151.681L147.041 13.184L151.953 19.392H148.929L145.345 14.992Z" fill="white"/>
<path d="M161.781 17.312V19.392H153.109V8.192H161.573V10.272H155.685V12.704H160.885V14.72H155.685V17.312H161.781Z" fill="white"/>
<path d="M166.164 10.304H162.58V8.192H172.34V10.304H168.756V19.392H166.164V10.304Z" fill="white"/>
<rect width="14" height="14" fill="#18A0FB"/>
<rect x="14" width="14" height="14" fill="#038EEB"/>
<rect y="14" width="14" height="14" fill="#44B4FF"/>
</svg>
